<mxfile host="app.diagrams.net" agent="Mozilla/5.0 (Windows NT 10.0; Win64; x64) AppleWebKit/537.36 (KHTML, like Gecko) Chrome/130.0.0.0 Safari/537.36" version="24.8.3">
  <diagram name="Page-1" id="jidonSQuB-0XgVviUFJx">
    <mxGraphModel dx="447" dy="707" grid="1" gridSize="10" guides="1" tooltips="1" connect="1" arrows="1" fold="1" page="1" pageScale="1" pageWidth="827" pageHeight="1169" math="0" shadow="0">
      <root>
        <mxCell id="0" />
        <mxCell id="1" parent="0" />
        <mxCell id="rp3EOb8fH77HyCNWDKxg-4" style="edgeStyle=orthogonalEdgeStyle;rounded=0;orthogonalLoop=1;jettySize=auto;html=1;" edge="1" parent="1" source="rp3EOb8fH77HyCNWDKxg-1" target="rp3EOb8fH77HyCNWDKxg-3">
          <mxGeometry relative="1" as="geometry" />
        </mxCell>
        <mxCell id="rp3EOb8fH77HyCNWDKxg-1" value="&lt;span style=&quot;font-size: 16px;&quot;&gt;Требования&lt;/span&gt;" style="html=1;whiteSpace=wrap;" vertex="1" parent="1">
          <mxGeometry x="330" y="60" width="110" height="50" as="geometry" />
        </mxCell>
        <mxCell id="rp3EOb8fH77HyCNWDKxg-2" value="&lt;span style=&quot;font-size: 16px;&quot;&gt;Функциональные&lt;/span&gt;" style="html=1;whiteSpace=wrap;" vertex="1" parent="1">
          <mxGeometry x="120" y="130" width="160" height="50" as="geometry" />
        </mxCell>
        <mxCell id="rp3EOb8fH77HyCNWDKxg-3" value="&lt;span style=&quot;font-size: 16px;&quot;&gt;Общие&lt;/span&gt;" style="html=1;whiteSpace=wrap;" vertex="1" parent="1">
          <mxGeometry x="480" y="130" width="160" height="50" as="geometry" />
        </mxCell>
        <mxCell id="rp3EOb8fH77HyCNWDKxg-5" style="edgeStyle=orthogonalEdgeStyle;rounded=0;orthogonalLoop=1;jettySize=auto;html=1;entryX=0.545;entryY=0.037;entryDx=0;entryDy=0;entryPerimeter=0;" edge="1" parent="1" source="rp3EOb8fH77HyCNWDKxg-1" target="rp3EOb8fH77HyCNWDKxg-2">
          <mxGeometry relative="1" as="geometry" />
        </mxCell>
        <mxCell id="rp3EOb8fH77HyCNWDKxg-7" value="&lt;ul&gt;&lt;li&gt;&lt;span style=&quot;background-color: initial;&quot;&gt;Просмотр ленты&lt;/span&gt;&lt;/li&gt;&lt;li&gt;Реакция на посты&lt;/li&gt;&lt;li&gt;Создание постов&lt;/li&gt;&lt;li&gt;Бесконечный скролл ленты&lt;/li&gt;&lt;li&gt;Возможность комментировать и прикреплять изображения и видео&lt;/li&gt;&lt;/ul&gt;" style="text;strokeColor=none;fillColor=none;html=1;whiteSpace=wrap;verticalAlign=middle;overflow=hidden;" vertex="1" parent="1">
          <mxGeometry x="100" y="180" width="200" height="130" as="geometry" />
        </mxCell>
        <mxCell id="rp3EOb8fH77HyCNWDKxg-8" value="&lt;ul&gt;&lt;li&gt;Поддержка устройств&lt;/li&gt;&lt;li&gt;Доступность&lt;/li&gt;&lt;li&gt;Производительность&lt;/li&gt;&lt;/ul&gt;" style="text;strokeColor=none;fillColor=none;html=1;whiteSpace=wrap;verticalAlign=middle;overflow=hidden;" vertex="1" parent="1">
          <mxGeometry x="460" y="190" width="200" height="70" as="geometry" />
        </mxCell>
        <mxCell id="rp3EOb8fH77HyCNWDKxg-9" value="&lt;span style=&quot;font-size: 16px;&quot;&gt;Архитектура&lt;/span&gt;" style="html=1;whiteSpace=wrap;" vertex="1" parent="1">
          <mxGeometry x="865" y="310" width="150" height="40" as="geometry" />
        </mxCell>
        <mxCell id="rp3EOb8fH77HyCNWDKxg-10" value="client" style="shape=umlFrame;whiteSpace=wrap;html=1;pointerEvents=0;" vertex="1" parent="1">
          <mxGeometry x="700" y="370" width="480" height="270" as="geometry" />
        </mxCell>
        <mxCell id="rp3EOb8fH77HyCNWDKxg-18" style="rounded=0;orthogonalLoop=1;jettySize=auto;html=1;" edge="1" parent="1" source="rp3EOb8fH77HyCNWDKxg-11" target="rp3EOb8fH77HyCNWDKxg-16">
          <mxGeometry relative="1" as="geometry" />
        </mxCell>
        <mxCell id="rp3EOb8fH77HyCNWDKxg-11" value="&lt;span style=&quot;font-size: 16px;&quot;&gt;Server&lt;/span&gt;" style="html=1;whiteSpace=wrap;fillColor=#dae8fc;strokeColor=#6c8ebf;" vertex="1" parent="1">
          <mxGeometry x="700" y="670" width="480" height="40" as="geometry" />
        </mxCell>
        <mxCell id="rp3EOb8fH77HyCNWDKxg-13" value="View: Feed" style="shape=umlFrame;whiteSpace=wrap;html=1;pointerEvents=0;" vertex="1" parent="1">
          <mxGeometry x="710" y="410" width="460" height="100" as="geometry" />
        </mxCell>
        <mxCell id="rp3EOb8fH77HyCNWDKxg-22" value="" style="edgeStyle=orthogonalEdgeStyle;rounded=0;orthogonalLoop=1;jettySize=auto;html=1;" edge="1" parent="1" source="rp3EOb8fH77HyCNWDKxg-14" target="rp3EOb8fH77HyCNWDKxg-16">
          <mxGeometry relative="1" as="geometry" />
        </mxCell>
        <mxCell id="rp3EOb8fH77HyCNWDKxg-14" value="Post" style="html=1;whiteSpace=wrap;fontSize=12;fillColor=#dae8fc;strokeColor=#6c8ebf;" vertex="1" parent="1">
          <mxGeometry x="750" y="450" width="150" height="40" as="geometry" />
        </mxCell>
        <mxCell id="rp3EOb8fH77HyCNWDKxg-27" style="rounded=0;orthogonalLoop=1;jettySize=auto;html=1;entryX=0.979;entryY=0.609;entryDx=0;entryDy=0;entryPerimeter=0;" edge="1" parent="1" source="rp3EOb8fH77HyCNWDKxg-15" target="rp3EOb8fH77HyCNWDKxg-16">
          <mxGeometry relative="1" as="geometry" />
        </mxCell>
        <mxCell id="rp3EOb8fH77HyCNWDKxg-15" value="Create Post" style="html=1;whiteSpace=wrap;fontSize=12;fillColor=#dae8fc;strokeColor=#6c8ebf;" vertex="1" parent="1">
          <mxGeometry x="990" y="450" width="150" height="40" as="geometry" />
        </mxCell>
        <mxCell id="rp3EOb8fH77HyCNWDKxg-19" style="edgeStyle=orthogonalEdgeStyle;rounded=0;orthogonalLoop=1;jettySize=auto;html=1;entryX=0.5;entryY=1;entryDx=0;entryDy=0;" edge="1" parent="1">
          <mxGeometry relative="1" as="geometry">
            <mxPoint x="860" y="564.5" as="sourcePoint" />
            <mxPoint x="860" y="490" as="targetPoint" />
          </mxGeometry>
        </mxCell>
        <mxCell id="rp3EOb8fH77HyCNWDKxg-32" style="edgeStyle=orthogonalEdgeStyle;rounded=0;orthogonalLoop=1;jettySize=auto;html=1;" edge="1" parent="1" source="rp3EOb8fH77HyCNWDKxg-16" target="rp3EOb8fH77HyCNWDKxg-17">
          <mxGeometry relative="1" as="geometry" />
        </mxCell>
        <mxCell id="rp3EOb8fH77HyCNWDKxg-16" value="Controller" style="html=1;whiteSpace=wrap;fontSize=12;fillColor=#dae8fc;strokeColor=#6c8ebf;" vertex="1" parent="1">
          <mxGeometry x="750" y="564.5" width="150" height="40" as="geometry" />
        </mxCell>
        <mxCell id="rp3EOb8fH77HyCNWDKxg-33" style="edgeStyle=orthogonalEdgeStyle;rounded=0;orthogonalLoop=1;jettySize=auto;html=1;" edge="1" parent="1" source="rp3EOb8fH77HyCNWDKxg-17" target="rp3EOb8fH77HyCNWDKxg-16">
          <mxGeometry relative="1" as="geometry" />
        </mxCell>
        <mxCell id="rp3EOb8fH77HyCNWDKxg-17" value="Client Store" style="html=1;whiteSpace=wrap;fontSize=12;fillColor=#dae8fc;strokeColor=#6c8ebf;" vertex="1" parent="1">
          <mxGeometry x="990" y="565" width="150" height="40" as="geometry" />
        </mxCell>
        <mxCell id="rp3EOb8fH77HyCNWDKxg-24" value="&lt;font style=&quot;font-size: 10px;&quot;&gt;JSON&lt;/font&gt;" style="html=1;whiteSpace=wrap;fontSize=12;fillColor=#f5f5f5;fontColor=#333333;strokeColor=#666666;" vertex="1" parent="1">
          <mxGeometry x="865" y="630" width="50" height="30" as="geometry" />
        </mxCell>
        <mxCell id="rp3EOb8fH77HyCNWDKxg-25" value="&lt;span style=&quot;font-size: 10px;&quot;&gt;Context&lt;/span&gt;&lt;span style=&quot;color: rgba(0, 0, 0, 0); font-family: monospace; font-size: 0px; text-align: start; text-wrap-mode: nowrap;&quot;&gt;%3CmxGraphModel%3E%3Croot%3E%3CmxCell%20id%3D%220%22%2F%3E%3CmxCell%20id%3D%221%22%20parent%3D%220%22%2F%3E%3CmxCell%20id%3D%222%22%20value%3D%22%26lt%3Bfont%20style%3D%26quot%3Bfont-size%3A%2010px%3B%26quot%3B%26gt%3BJSON%26lt%3B%2Ffont%26gt%3B%22%20style%3D%22html%3D1%3BwhiteSpace%3Dwrap%3BfontSize%3D12%3B%22%20vertex%3D%221%22%20parent%3D%221%22%3E%3CmxGeometry%20x%3D%22865%22%20y%3D%22630%22%20width%3D%2250%22%20height%3D%2230%22%20as%3D%22geometry%22%2F%3E%3C%2FmxCell%3E%3C%2Froot%3E%3C%2FmxGraphModel%3E&lt;/span&gt;" style="html=1;whiteSpace=wrap;fontSize=12;fillColor=#f5f5f5;fontColor=#333333;strokeColor=#666666;" vertex="1" parent="1">
          <mxGeometry x="860" y="520" width="50" height="30" as="geometry" />
        </mxCell>
        <mxCell id="rp3EOb8fH77HyCNWDKxg-26" value="&lt;span style=&quot;font-size: 10px;&quot;&gt;Interacion&lt;/span&gt;" style="html=1;whiteSpace=wrap;fontSize=12;fillColor=#f5f5f5;fontColor=#333333;strokeColor=#666666;" vertex="1" parent="1">
          <mxGeometry x="777" y="520" width="50" height="30" as="geometry" />
        </mxCell>
        <mxCell id="rp3EOb8fH77HyCNWDKxg-28" value="&lt;span style=&quot;font-size: 10px;&quot;&gt;New post&lt;/span&gt;" style="html=1;whiteSpace=wrap;fontSize=12;fillColor=#f5f5f5;fontColor=#333333;strokeColor=#666666;" vertex="1" parent="1">
          <mxGeometry x="950" y="520" width="50" height="30" as="geometry" />
        </mxCell>
        <mxCell id="rp3EOb8fH77HyCNWDKxg-34" value="&lt;span style=&quot;font-size: 10px;&quot;&gt;Data&lt;/span&gt;" style="html=1;whiteSpace=wrap;fontSize=12;fillColor=#f5f5f5;fontColor=#333333;strokeColor=#666666;" vertex="1" parent="1">
          <mxGeometry x="920" y="585" width="50" height="30" as="geometry" />
        </mxCell>
        <mxCell id="rp3EOb8fH77HyCNWDKxg-35" style="rounded=0;orthogonalLoop=1;jettySize=auto;html=1;" edge="1" parent="1">
          <mxGeometry relative="1" as="geometry">
            <mxPoint x="865" y="604.5" as="sourcePoint" />
            <mxPoint x="936" y="669.5" as="targetPoint" />
          </mxGeometry>
        </mxCell>
      </root>
    </mxGraphModel>
  </diagram>
</mxfile>
